#!OML:ASF X:\für Bonn\!DataBase\2005_08_12_Daniel\c3d\Daniel.ASF
:FULLY-SPECIFIED
:DEGREES
190
root 2.34286 17.5925 18.3791 -3.73514 -348.411 362.558
lowerback 5.72579 0.0343367 -1.44832
upperback -0.145033 -0.204289 -4.77145
thorax -3.37934 -0.113026 -4.11633
lowerneck -1.33165 -1.71967 -1.75311
upperneck 8.57157 -2.23845 0.196761
head 2.98512 -1.15743 0.298128
rclavicle 1.98785e-014 -1.27222e-014
rhumerus -0.79198 1.1803 -69.7991
rradius 101.623
rwrist -6.80224
rhand -10.2898 14.8408
rfingers 7.12502
rthumb 15.7046 -14.542
lclavicle 1.98785e-014 -1.27222e-014
lhumerus -45.2458 46.5679 51.0768
lradius 16.1398
lwrist -45.5949
lhand -11.7939 -5.21499
lfingers 7.12502
lthumb 14.2556 24.2757
rfemur 2.78898 13.7069 15.7236
rtibia 22.263
rfoot -25.3509 -17.6587
rtoes -11.774
lfemur -4.95218 -18.5401 -22.6701
ltibia 29.2834
lfoot -19.3982 0.977477
ltoes -9.08253
191
root 2.33384 17.5887 18.371 -3.70844 -348.236 362.616
lowerback 5.81281 -0.0951685 -1.56606
upperback -0.10598 -0.384589 -4.69136
thorax -3.39732 -0.200055 -3.95005
lowerneck -1.44987 -1.58509 -1.90543
upperneck 8.49783 -2.03589 0.027325
head 2.97969 -1.06683 0.275394
rclavicle -8.49804e-015 2.8625e-014
rhumerus -3.70956 1.85708 -70.5167
rradius 103.579
rwrist -8.76977
rhand -10.0004 15.1986
rfingers 7.12502
rthumb 15.9832 -14.162
lclavicle -8.49804e-015 2.8625e-014
lhumerus -44.5746 45.7907 52.2284
lradius 16.4101
lwrist -44.4121
lhand -11.7085 -5.30338
lfingers 7.12502
lthumb 14.3379 24.1815
rfemur 2.50336 13.445 15.4547
rtibia 22.6073
rfoot -24.7878 -16.7306
rtoes -12.8796
lfemur -5.10492 -18.5705 -22.6644
ltibia 29.3819
lfoot -19.3628 0.790192
ltoes -8.99839
192
root 2.32355 17.5838 18.3629 -3.68673 -348.049 362.686
lowerback 5.89141 -0.22843 -1.68336
upperback -0.0412267 -0.568636 -4.62432
thorax -3.383 -0.288791 -3.79691
lowerneck -1.58257 -1.4473 -2.06166
upperneck 8.39544 -1.82919 -0.133383
head 2.96745 -0.973783 0.256408
rclavicle 1.59028e-014 3.18055e-015
rhumerus -6.61675 2.64583 -71.3121
rradius 105.363
rwrist -10.9136
rhand -9.59335 15.4332
rfingers 7.12502
rthumb 16.3752 -13.8955
lclavicle 1.59028e-014 3.18055e-015
lhumerus -43.9259 45.1197 53.2848
lradius 16.6785
lwrist -43.3215
lhand -11.6206 -5.33483
lfingers 7.12502
lthumb 14.4226 24.144
rfemur 2.24086 13.3403 15.1846
rtibia 22.9365
rfoot -24.3015 -15.6835
rtoes -13.7429
lfemur -5.25761 -18.6259 -22.6751
ltibia 29.5059
lfoot -19.3453 0.602668
ltoes -8.8574
193
root 2.31194 17.5781 18.3546 -3.66437 -347.854 362.757
lowerback 5.99001 -0.371531 -1.8019
upperback 0.00438603 -0.76753 -4.54537
thorax -3.39911 -0.385025 -3.62927
lowerneck -1.68095 -1.28522 -2.21481
upperneck 8.30087 -1.58741 -0.335314
head 2.95066 -0.864468 0.22504
rclavicle -1.05356e-014 -3.02153e-014
rhumerus -9.56436 3.54618 -72.2044
rradius 106.898
rwrist -13.0951
rhand -9.0535 15.7072
rfingers 7.12502
rthumb 16.8949 -13.5779
lclavicle -1.05356e-014 -3.02153e-014
lhumerus -43.3583 44.4036 54.3169
lradius 16.9721
lwrist -42.2263
lhand -11.4987 -5.36294
lfingers 7.12502
lthumb 14.5401 24.1075
rfemur 1.99107 13.3071 14.9141
rtibia 23.2401
rfoot -23.8231 -14.4643
rtoes -14.5949
lfemur -5.43076 -18.6586 -22.6772
ltibia 29.6463
lfoot -19.3227 0.410161
ltoes -8.8893
194
root 2.29962 17.5724 18.3462 -3.64684 -347.633 362.8
lowerback 6.07036 -0.537624 -1.88247
upperback 0.0640613 -0.992508 -4.45134
thorax -3.39051 -0.494705 -3.46463
lowerneck -1.76398 -1.09713 -2.4017
upperneck 8.17484 -1.30949 -0.543985
head 2.92046 -0.737984 0.198713
rclavicle 1.55797e-014 8.74653e-015
rhumerus -12.5199 4.57567 -73.1694
rradius 108.163
rwrist -15.2687
rhand -8.51068 16.0224
rfingers 7.12502
rthumb 17.4174 -13.2173
lclavicle 1.55797e-014 8.74653e-015
lhumerus -42.7838 43.6503 55.3883
lradius 17.2966
lwrist -41.0473
lhand -11.3995 -5.35338
lfingers 7.12502
lthumb 14.6357 24.1102
rfemur 1.7703 13.4175 14.6896
rtibia 23.5023
rfoot -23.375 -13.1959
rtoes -15.1826
lfemur -5.61173 -18.7067 -22.6421
ltibia 29.7962
lfoot -19.2925 0.176042
ltoes -8.68736
195
root 2.28603 17.5663 18.3382 -3.62507 -347.412 362.858
lowerback 6.15937 -0.702531 -1.96128
upperback 0.110308 -1.21721 -4.36739
thorax -3.39954 -0.604429 -3.31134
lowerneck -1.77627 -0.89479 -2.55076
upperneck 8.00257 -1.01345 -0.804169
head 2.86068 -0.602065 0.150307
rclavicle 8.87077e-015 4.29375e-014
rhumerus -15.6323 5.61824 -74.301
rradius 109.2
rwrist -17.2771
rhand -7.9184 16.449
rfingers 7.12502
rthumb 17.9874 -12.7393
lclavicle 8.87077e-015 4.29375e-014
lhumerus -42.2998 42.9332 56.3454
lradius 17.6342
lwrist -39.9758
lhand -11.2899 -5.41985
lfingers 7.12502
lthumb 14.7412 24.036
rfemur 1.57273 13.6149 14.4534
rtibia 23.7055
rfoot -22.9482 -11.9072
rtoes -15.8032
lfemur -5.79047 -18.7939 -22.6312
ltibia 29.9461
lfoot -19.2765 0.00660456
ltoes -8.71758
196
root 2.27139 17.5605 18.3302 -3.61157 -347.17 362.914
lowerback 6.2532 -0.878706 -2.0286
upperback 0.169372 -1.45555 -4.27821
thorax -3.39734 -0.721049 -3.15746
lowerneck -1.80436 -0.681775 -2.76532
upperneck 7.81386 -0.70262 -1.04111
head 2.79936 -0.459268 0.120924
rclavicle -3.50358e-015 2.22639e-014
rhumerus -18.9001 6.62676 -75.5883
rradius 110.084
rwrist -19.1188
rhand -7.29148 16.9636
rfingers 7.12502
rthumb 18.5905 -12.1681
lclavicle -3.50358e-015 2.22639e-014
lhumerus -41.8118 42.1617 57.3376
lradius 17.9947
lwrist -38.8846
lhand -11.2009 -5.4514
lfingers 7.12502
lthumb 14.827 23.9981
rfemur 1.40314 13.9801 14.2427
rtibia 23.851
rfoot -22.5474 -10.7066
rtoes -16.3331
lfemur -5.95497 -18.8905 -22.6114
ltibia 30.0834
lfoot -19.2551 -0.190458
ltoes -8.63043
197
root 2.25575 17.5565 18.3223 -3.5904 -346.934 362.959
lowerback 6.34371 -1.059 -2.07488
upperback 0.2267 -1.69775 -4.18623
thorax -3.39436 -0.839949 -3.01191
lowerneck -1.85984 -0.454507 -2.91208
upperneck 7.64186 -0.368687 -1.3702
head 2.74829 -0.305693 0.0508406
rclavicle 2.30093e-014 1.82882e-014
rhumerus -22.2776 7.5608 -77.0486
rradius 110.839
rwrist -20.8355
rhand -6.59046 17.488
rfingers 7.12502
rthumb 19.2647 -11.5778
lclavicle 2.30093e-014 1.82882e-014
lhumerus -41.3574 41.3329 58.3291
lradius 18.4001
lwrist -37.7416
lhand -11.0954 -5.54896
lfingers 7.12502
lthumb 14.9286 23.8931
rfemur 1.21446 14.4461 14.0379
rtibia 23.9436
rfoot -22.1498 -9.58197
rtoes -16.8141
lfemur -6.12669 -18.9587 -22.5718
ltibia 30.2005
lfoot -19.2173 -0.40861
ltoes -8.53859
